<svg width="96" height="96" viewBox="0 0 60 54" xmlns="http://www.w3.org/2000/svg"><g fill="none" fill-rule="evenodd"><path d="M29 54a7 7 0 00-14 0h14z" fill="#80D25B"/><path d="M41 54a7 7 0 00-14 0h14z" fill="#80D25B"/><path d="M57 54a7 7 0 00-14 0h14z" fill="#22BA8E"/><path d="M46 54a5 5 0 00-10 0h10z" fill="#80D25B"/><path d="M31 54a5 5 0 00-10 0h10z" fill="#22BA8E"/><path d="M53 41v12" stroke="#9C4D4D" stroke-width="2" stroke-linecap="square"/><path d="M53 42c3.866 0 7-2.115 7-14.438C60 15.24 56.866 0 53 0s-7 15.24-7 27.563C46 39.885 49.134 42 53 42z" fill="#22BA8E"/><path d="M18 53V22" stroke="#9C4D4D" stroke-width="2" stroke-linecap="square"/><path fill="#BD7575" d="M19 25h13l4 4-4 4H19zm-2 8H4l-4 4 4 4h13z"/></g></svg>