<svg xmlns="http://www.w3.org/2000/svg" width="96" height="96" viewBox="0 0 48 48"><path fill="#FFD54F" d="M20 6L6 42l36-14z"/><g fill="#FF3D00"><path d="M15.001 32A5 5 0 0010 36.999c0 1.147.402 2.192 1.053 3.036l8.904-3.463C19.737 34.015 17.615 32 15.001 32z"/><circle cx="20.501" cy="18.5" r="4.5"/></g><path d="M28 20c-1.655 0-3 1.345-3 3.002C25 24.656 26.345 26 28 26s3-1.344 3-2.998A3.003 3.003 0 0028 20zm0 4.5a1.5 1.5 0 11-.001-2.999A1.5 1.5 0 0128 24.5zM16 25c-1.655 0-3 1.345-3 3.002C13 29.656 14.345 31 16 31s3-1.344 3-2.998A3.003 3.003 0 0016 25zm0 4.5a1.5 1.5 0 11-.001-2.999A1.5 1.5 0 0116 29.5z" fill="#3E2723"/><g fill="#8D6E63"><path d="M29.872 32.522a2 2 0 00-2.575-1.17c-1.034.388-6.24 3.296-5.853 4.33.034.092.125.16.238.219l8.235-3.203c-.015-.058-.023-.118-.045-.176z"/><path d="M25.189 34.278c-.486-1.52-.307-2.893-.307-2.893.033-.043.034-.094.03-.146a.965.965 0 00-.016-.591 1 1 0 00-1.629-.368 4.524 4.524 0 00-1.822 5.402c.034.092.085.172.125.261l3.705-1.44c-.027-.075-.06-.146-.086-.225z"/></g><path d="M26 28.595s-.536-5.372-6-3.443c.589 5.589 6 3.443 6 3.443zM33.595 25s-5.373.535-3.443 6c5.589-.59 3.443-6 3.443-6z" fill="#689F38"/><path fill="#FF9800" d="M41.858 27.188c-.927-2.179-3.077-8.541-7.786-13.249-4.581-4.584-10.641-7.104-13.331-7.834-.839-.226-1.025-.272-1.354.563-.268.676-1.03 2.987-1.406 4.069a2.72 2.72 0 00-.121.47 33.092 33.092 0 0118.951 18.975c.025-.006.047-.001.074-.01.695-.221 3.471-1.19 4.208-1.436.737-.25 1.138-.673.765-1.548z"/></svg>