<svg width="16" height="16" fill="none" xmlns="http://www.w3.org/2000/svg"><path fill-rule="evenodd" clip-rule="evenodd" d="M6.526 9.728l3.582-1.857-3.582-1.869v3.726z" fill="#D3D3D3"/><path fill-rule="evenodd" clip-rule="evenodd" d="M7.98 0a7.98 7.98 0 100 15.96A7.98 7.98 0 007.98 0zm5.436 10.643a1.424 1.424 0 01-1.218 1.107c-1.397.156-2.81.157-4.219.156-1.408.001-2.822 0-4.22-.156a1.422 1.422 0 01-1.217-1.107c-.196-.853-.196-1.785-.196-2.663 0-.879.002-1.81.198-2.664.138-.6.628-1.041 1.218-1.107 1.397-.156 2.811-.157 4.22-.156 1.407-.001 2.822 0 4.218.156.59.066 1.08.508 1.219 1.107.196.853.194 1.785.194 2.664 0 .878 0 1.81-.197 2.663z" fill="#D3D3D3"/></svg>